<?xml version="1.0" encoding="UTF-8" standalone="no"?><svg xmlns="http://www.w3.org/2000/svg" xmlns:xlink="http://www.w3.org/1999/xlink" clip-rule="evenodd" stroke-miterlimit="10" viewBox="0 0 1024 768"><desc>SVG generated by Keynote</desc><defs></defs><g transform="matrix(1.00, 0.00, -0.00, -1.00, 0.0, 768.0)"><g><clipPath id="clip0x600000aa5460"><path d="M 0.0 768.0 L 1024.0 768.0 L 1024.0 0.0 L 0.0 0.0 Z M 0.0 768.0 "></path></clipPath><g clip-path="url(#clip0x600000aa5460)"><image xlink:href="../../BE03AB4A-F5E0-4685-80C7-20DCBC62631F/assets/574DCE55A4CF432400CBDDDE1DFDFC9B.jpeg" width="2048.00" height="1536.00" transform="matrix(0.50, 0.00, -0.00, -0.50, 0.0, 768.0)"></image></g></g><path d="M 270.0 739.0 L 754.0 739.0 L 754.0 688.0 L 270.0 688.0 Z M 269.8 739.5 " fill="#AA1802"></path><g><clipPath id="clip0x6100006b1520"><path d="M 263.1 681.8 L 760.9 681.8 L 760.9 746.2 L 263.1 746.2 Z M 263.1 681.8 "></path></clipPath><g clip-path="url(#clip0x6100006b1520)"><text xml:space="preserve" font-family="GillSans-SemiBold,Gill Sans" font-weight="bold" font-size="36.0" fill="#FEFFFF" transform="matrix(1.00, 0.00, -0.00, -1.00, 274.3, 701.5)">C</text><text xml:space="preserve" font-family="GillSans-SemiBold,Gill Sans" font-weight="bold" font-size="36.0" fill="#FEFFFF" transform="matrix(1.00, 0.00, -0.00, -1.00, 300.1, 701.5)">O</text><text xml:space="preserve" font-family="GillSans-SemiBold,Gill Sans" font-weight="bold" font-size="36.0" fill="#FEFFFF" transform="matrix(1.00, 0.00, -0.00, -1.00, 330.7, 701.5)">L</text><text xml:space="preserve" font-family="GillSans-SemiBold,Gill Sans" font-weight="bold" font-size="36.0" fill="#FEFFFF" transform="matrix(1.00, 0.00, -0.00, -1.00, 349.9, 701.5)">O</text><text xml:space="preserve" font-family="GillSans-SemiBold,Gill Sans" font-weight="bold" font-size="36.0" fill="#FEFFFF" transform="matrix(1.00, 0.00, -0.00, -1.00, 380.4, 701.5)">R</text><text xml:space="preserve" font-family="GillSans-SemiBold,Gill Sans" font-weight="bold" font-size="36.0" fill="#FEFFFF" transform="matrix(1.00, 0.00, -0.00, -1.00, 403.3, 701.5)">S</text><text xml:space="preserve" font-family="GillSans-SemiBold,Gill Sans" font-weight="bold" font-size="36.0" fill="#FEFFFF" transform="matrix(1.00, 0.00, -0.00, -1.00, 422.5, 701.5)">E</text><text xml:space="preserve" font-family="GillSans-SemiBold,Gill Sans" font-weight="bold" font-size="36.0" fill="#FEFFFF" transform="matrix(1.00, 0.00, -0.00, -1.00, 443.1, 701.5)">A</text><text xml:space="preserve" font-family="GillSans-SemiBold,Gill Sans" font-weight="bold" font-size="36.0" fill="#FEFFFF" transform="matrix(1.00, 0.00, -0.00, -1.00, 469.3, 701.5)">R</text><text xml:space="preserve" font-family="GillSans-SemiBold,Gill Sans" font-weight="bold" font-size="36.0" fill="#FEFFFF" transform="matrix(1.00, 0.00, -0.00, -1.00, 491.4, 701.5)">C</text><text xml:space="preserve" font-family="GillSans-SemiBold,Gill Sans" font-weight="bold" font-size="36.0" fill="#FEFFFF" transform="matrix(1.00, 0.00, -0.00, -1.00, 517.5, 701.5)">H</text><text xml:space="preserve" font-family="GillSans-Light,Gill Sans" font-size="36.0" fill="#FEFFFF" transform="matrix(1.00, 0.00, -0.00, -1.00, 545.1, 701.5)"> </text><text xml:space="preserve" font-family="GillSans-Light,Gill Sans" font-size="36.0" fill="#FEFFFF" transform="matrix(1.00, 0.00, -0.00, -1.00, 555.1, 701.5)">D</text><text xml:space="preserve" font-family="GillSans-Light,Gill Sans" font-size="36.0" fill="#FEFFFF" transform="matrix(1.00, 0.00, -0.00, -1.00, 580.3, 701.5)">A</text><text xml:space="preserve" font-family="GillSans-Light,Gill Sans" font-size="36.0" fill="#FEFFFF" transform="matrix(1.00, 0.00, -0.00, -1.00, 600.7, 701.5)">T</text><text xml:space="preserve" font-family="GillSans-Light,Gill Sans" font-size="36.0" fill="#FEFFFF" transform="matrix(1.00, 0.00, -0.00, -1.00, 617.7, 701.5)">A</text><text xml:space="preserve" font-family="GillSans-Light,Gill Sans" font-size="36.0" fill="#FEFFFF" transform="matrix(1.00, 0.00, -0.00, -1.00, 641.7, 701.5)"> </text><text xml:space="preserve" font-family="GillSans-Light,Gill Sans" font-size="36.0" fill="#FEFFFF" transform="matrix(1.00, 0.00, -0.00, -1.00, 651.7, 701.5)">F</text><text xml:space="preserve" font-family="GillSans-Light,Gill Sans" font-size="36.0" fill="#FEFFFF" transform="matrix(1.00, 0.00, -0.00, -1.00, 667.5, 701.5)">L</text><text xml:space="preserve" font-family="GillSans-Light,Gill Sans" font-size="36.0" fill="#FEFFFF" transform="matrix(1.00, 0.00, -0.00, -1.00, 684.4, 701.5)">O</text><text xml:space="preserve" font-family="GillSans-Light,Gill Sans" font-size="36.0" fill="#FEFFFF" transform="matrix(1.00, 0.00, -0.00, -1.00, 712.6, 701.5)">W</text></g></g><g><clipPath id="clip0x6100006b1f40"><path d="M 22.0 649.0 L 218.0 649.0 L 218.0 508.0 L 22.0 508.0 Z M 22.3 648.7 "></path></clipPath><g clip-path="url(#clip0x6100006b1f40)"><image xlink:href="../../53C6BB14-1D6C-4154-A733-386788D4302E/assets/1EA1BB77B0909408E85E41B3564B7969.png" width="1944.00" height="1836.00" transform="matrix(0.11, 0.00, -0.00, -0.11, 18.0, 702.0)"></image></g></g><g><clipPath id="clip0x6100006b1fa0"><path d="M 235.0 552.9 L 337.0 552.9 L 337.0 603.9 L 235.0 603.9 Z M 235.0 552.9 "></path></clipPath><g clip-path="url(#clip0x6100006b1fa0)"><path d="M 309.0 573.0 L 309.0 553.9 L 336.0 578.4 L 309.0 602.9 L 309.0 584.0 L 236.0 584.0 L 236.0 573.0 Z M 309.1 572.7 " fill="#7F8685"></path></g></g><g><clipPath id="clip0x6100006b23c0"><path d="M 444.1 525.8 L 955.5 525.8 L 955.5 666.5 L 444.1 666.5 Z M 444.1 525.8 "></path></clipPath><g clip-path="url(#clip0x6100006b23c0)"><image xlink:href="../../38D3D0A8-BC86-4E13-8469-EE6415E52085/assets/38B1AB1C66048CA07352926FC11C7D55.png" width="1490.00" height="410.00" transform="matrix(0.34, 0.00, -0.00, -0.34, 444.0, 667.0)"></image></g></g><g><clipPath id="clip0x600000aa55e0"><path d="M 585.6 447.8 L 1040.5 447.8 L 1040.5 535.4 L 585.6 535.4 Z M 585.6 447.8 "></path></clipPath><g clip-path="url(#clip0x600000aa55e0)"><text xml:space="preserve" font-family="GillSans-Light,Gill Sans" font-size="31.0" fill="#525252" transform="matrix(1.00, 0.00, -0.00, -1.00, 607.8, 499.0)">J</text><text xml:space="preserve" font-family="GillSans-Light,Gill Sans" font-size="31.0" fill="#525252" transform="matrix(1.00, 0.00, -0.00, -1.00, 614.2, 499.0)">S</text><text xml:space="preserve" font-family="GillSans-Light,Gill Sans" font-size="31.0" fill="#525252" transform="matrix(1.00, 0.00, -0.00, -1.00, 628.8, 499.0)">O</text><text xml:space="preserve" font-family="GillSans-Light,Gill Sans" font-size="31.0" fill="#525252" transform="matrix(1.00, 0.00, -0.00, -1.00, 654.3, 499.0)">N</text><text xml:space="preserve" font-family="GillSans-Light,Gill Sans" font-size="31.0" fill="#525252" transform="matrix(1.00, 0.00, -0.00, -1.00, 678.2, 499.0)"> </text><text xml:space="preserve" font-family="GillSans-Light,Gill Sans" font-size="31.0" fill="#525252" transform="matrix(1.00, 0.00, -0.00, -1.00, 686.8, 499.0)">w</text><text xml:space="preserve" font-family="GillSans-Light,Gill Sans" font-size="31.0" fill="#525252" transform="matrix(1.00, 0.00, -0.00, -1.00, 708.8, 499.0)">i</text><text xml:space="preserve" font-family="GillSans-Light,Gill Sans" font-size="31.0" fill="#525252" transform="matrix(1.00, 0.00, -0.00, -1.00, 714.6, 499.0)">t</text><text xml:space="preserve" font-family="GillSans-Light,Gill Sans" font-size="31.0" fill="#525252" transform="matrix(1.00, 0.00, -0.00, -1.00, 724.0, 499.0)">h</text><text xml:space="preserve" font-family="GillSans-Light,Gill Sans" font-size="31.0" fill="#525252" transform="matrix(1.00, 0.00, -0.00, -1.00, 739.2, 499.0)"> </text><text xml:space="preserve" font-family="GillSans-Light,Gill Sans" font-size="31.0" fill="#525252" transform="matrix(1.00, 0.00, -0.00, -1.00, 747.8, 499.0)">c</text><text xml:space="preserve" font-family="GillSans-Light,Gill Sans" font-size="31.0" fill="#525252" transform="matrix(1.00, 0.00, -0.00, -1.00, 760.7, 499.0)">o</text><text xml:space="preserve" font-family="GillSans-Light,Gill Sans" font-size="31.0" fill="#525252" transform="matrix(1.00, 0.00, -0.00, -1.00, 777.5, 499.0)">l</text><text xml:space="preserve" font-family="GillSans-Light,Gill Sans" font-size="31.0" fill="#525252" transform="matrix(1.00, 0.00, -0.00, -1.00, 783.3, 499.0)">o</text><text xml:space="preserve" font-family="GillSans-Light,Gill Sans" font-size="31.0" fill="#525252" transform="matrix(1.00, 0.00, -0.00, -1.00, 800.1, 499.0)">r</text><text xml:space="preserve" font-family="GillSans-Light,Gill Sans" font-size="31.0" fill="#525252" transform="matrix(1.00, 0.00, -0.00, -1.00, 594.9, 464.0)">c</text><text xml:space="preserve" font-family="GillSans-Light,Gill Sans" font-size="31.0" fill="#525252" transform="matrix(1.00, 0.00, -0.00, -1.00, 607.8, 464.0)">l</text><text xml:space="preserve" font-family="GillSans-Light,Gill Sans" font-size="31.0" fill="#525252" transform="matrix(1.00, 0.00, -0.00, -1.00, 613.7, 464.0)">u</text><text xml:space="preserve" font-family="GillSans-Light,Gill Sans" font-size="31.0" fill="#525252" transform="matrix(1.00, 0.00, -0.00, -1.00, 628.9, 464.0)">s</text><text xml:space="preserve" font-family="GillSans-Light,Gill Sans" font-size="31.0" fill="#525252" transform="matrix(1.00, 0.00, -0.00, -1.00, 639.8, 464.0)">t</text><text xml:space="preserve" font-family="GillSans-Light,Gill Sans" font-size="31.0" fill="#525252" transform="matrix(1.00, 0.00, -0.00, -1.00, 649.2, 464.0)">e</text><text xml:space="preserve" font-family="GillSans-Light,Gill Sans" font-size="31.0" fill="#525252" transform="matrix(1.00, 0.00, -0.00, -1.00, 664.0, 464.0)">r</text><text xml:space="preserve" font-family="GillSans-Light,Gill Sans" font-size="31.0" fill="#525252" transform="matrix(1.00, 0.00, -0.00, -1.00, 674.4, 464.0)"> </text><text xml:space="preserve" font-family="GillSans-Light,Gill Sans" font-size="31.0" fill="#525252" transform="matrix(1.00, 0.00, -0.00, -1.00, 683.0, 464.0)">i</text><text xml:space="preserve" font-family="GillSans-Light,Gill Sans" font-size="31.0" fill="#525252" transform="matrix(1.00, 0.00, -0.00, -1.00, 688.8, 464.0)">n</text><text xml:space="preserve" font-family="GillSans-Light,Gill Sans" font-size="31.0" fill="#525252" transform="matrix(1.00, 0.00, -0.00, -1.00, 704.0, 464.0)">f</text><text xml:space="preserve" font-family="GillSans-Light,Gill Sans" font-size="31.0" fill="#525252" transform="matrix(1.00, 0.00, -0.00, -1.00, 711.1, 464.0)">o</text><text xml:space="preserve" font-family="GillSans-Light,Gill Sans" font-size="31.0" fill="#525252" transform="matrix(1.00, 0.00, -0.00, -1.00, 727.9, 464.0)">r</text><text xml:space="preserve" font-family="GillSans-Light,Gill Sans" font-size="31.0" fill="#525252" transform="matrix(1.00, 0.00, -0.00, -1.00, 739.0, 464.0)">m</text><text xml:space="preserve" font-family="GillSans-Light,Gill Sans" font-size="31.0" fill="#525252" transform="matrix(1.00, 0.00, -0.00, -1.00, 762.9, 464.0)">a</text><text xml:space="preserve" font-family="GillSans-Light,Gill Sans" font-size="31.0" fill="#525252" transform="matrix(1.00, 0.00, -0.00, -1.00, 776.2, 464.0)">t</text><text xml:space="preserve" font-family="GillSans-Light,Gill Sans" font-size="31.0" fill="#525252" transform="matrix(1.00, 0.00, -0.00, -1.00, 785.5, 464.0)">i</text><text xml:space="preserve" font-family="GillSans-Light,Gill Sans" font-size="31.0" fill="#525252" transform="matrix(1.00, 0.00, -0.00, -1.00, 791.3, 464.0)">o</text><text xml:space="preserve" font-family="GillSans-Light,Gill Sans" font-size="31.0" fill="#525252" transform="matrix(1.00, 0.00, -0.00, -1.00, 808.1, 464.0)">n</text></g></g><g><clipPath id="clip0x600000aa65a0"><path d="M 343.3 475.1 L 503.2 475.1 L 503.2 599.9 L 343.3 599.9 Z M 343.3 475.1 "></path></clipPath><g clip-path="url(#clip0x600000aa65a0)"><image xlink:href="../../38D3D0A8-BC86-4E13-8469-EE6415E52085/assets/7A22676E2322693F4D80E6D92A6B199B.png" width="160.00" height="125.00" transform="matrix(1.00, 0.00, -0.00, -1.00, 343.3, 599.9)" opacity="0.60"></image></g></g><g><clipPath id="clip0x600000aa6600"><path d="M 354.0 596.0 L 493.0 596.0 L 493.0 491.0 L 354.0 491.0 Z M 353.5 595.9 "></path></clipPath><g clip-path="url(#clip0x600000aa6600)"><g><clipPath id="clip0x600000aa6960"><path d="M 343.3 475.1 L 503.2 475.1 L 503.2 599.9 L 343.3 599.9 Z M 343.3 475.1 "></path></clipPath><g clip-path="url(#clip0x600000aa6960)"><image xlink:href="../../53C6BB14-1D6C-4154-A733-386788D4302E/assets/1EA1BB77B0909408E85E41B3564B7969.png" width="1944.00" height="1836.00" transform="matrix(0.50, 0.00, -0.00, -0.50, -435.0, 1410.0)"></image></g></g></g></g><g><clipPath id="clip0x6080004a3300"><path d="M 544.9 273.0 L 854.8 273.0 L 854.8 367.8 L 544.9 367.8 Z M 544.9 273.0 "></path></clipPath><g clip-path="url(#clip0x6080004a3300)"><image xlink:href="../../8F7BCC13-B65A-479F-A58D-145C72B9D542/assets/E6E0DAE95EA40530ABBBAF027A0EBD30.png" width="1000.00" height="306.00" transform="matrix(0.31, 0.00, -0.00, -0.31, 545.0, 368.0)"></image></g></g><g><clipPath id="clip0x600000aa69c0"><path d="M 719.9 451.3 L 719.9 361.2 L 679.8 361.2 L 679.8 451.3 Z M 719.9 451.3 "></path></clipPath><g clip-path="url(#clip0x600000aa69c0)"><path d="M 694.0 388.0 L 680.8 388.0 L 699.8 362.2 L 718.9 388.0 L 706.0 388.0 L 706.0 450.0 L 694.0 450.0 Z M 693.6 387.7 " fill="#D99719"></path></g></g><g><clipPath id="clip0x600000aa6de0"><path d="M 649.4 223.5 L 768.8 223.5 L 768.8 285.0 L 649.4 285.0 Z M 649.4 223.5 "></path></clipPath><g clip-path="url(#clip0x600000aa6de0)"><text xml:space="preserve" font-family="GillSans-Light,Gill Sans" font-size="36.0" fill="#525252" transform="matrix(1.00, 0.00, -0.00, -1.00, 660.2, 242.3)">l</text><text xml:space="preserve" font-family="GillSans-Light,Gill Sans" font-size="36.0" fill="#525252" transform="matrix(1.00, 0.00, -0.00, -1.00, 666.9, 242.3)">u</text><text xml:space="preserve" font-family="GillSans-Light,Gill Sans" font-size="36.0" fill="#525252" transform="matrix(1.00, 0.00, -0.00, -1.00, 684.6, 242.3)">c</text><text xml:space="preserve" font-family="GillSans-Light,Gill Sans" font-size="36.0" fill="#525252" transform="matrix(1.00, 0.00, -0.00, -1.00, 699.6, 242.3)">e</text><text xml:space="preserve" font-family="GillSans-Light,Gill Sans" font-size="36.0" fill="#525252" transform="matrix(1.00, 0.00, -0.00, -1.00, 716.8, 242.3)">n</text><text xml:space="preserve" font-family="GillSans-Light,Gill Sans" font-size="36.0" fill="#525252" transform="matrix(1.00, 0.00, -0.00, -1.00, 734.5, 242.3)">e</text><text xml:space="preserve" font-family="GillSans-Light,Gill Sans" font-size="36.0" fill="#525252" transform="matrix(1.00, 0.00, -0.00, -1.00, 751.7, 242.3)">!</text></g></g><image xlink:href="../../38D3D0A8-BC86-4E13-8469-EE6415E52085/assets/7F5BA260D42DF3BFA486B8F4DA655C05.png" width="1150.00" height="270.00" transform="matrix(0.35, 0.00, -0.00, -0.35, 24.0, 368.0)"></image><g><clipPath id="clip0x6080008b3da0"><path d="M 640.9 254.0 L 531.9 145.0 L 503.6 173.3 L 612.5 282.3 Z M 640.9 254.0 "></path></clipPath><g clip-path="url(#clip0x6080008b3da0)"><path d="M 532.0 182.3 L 523.0 191.4 L 518.4 159.9 L 549.9 164.4 L 540.9 173.5 L 630.4 263.0 L 621.6 271.8 Z M 532.0 182.3 " fill="#D99719"></path></g></g><g><clipPath id="clip0x6080008b1220"><path d="M 79.1 124.2 L 482.9 124.2 L 482.9 321.0 L 79.1 321.0 Z M 79.1 124.2 "></path></clipPath><g clip-path="url(#clip0x6080008b1220)"><image xlink:href="../../38D3D0A8-BC86-4E13-8469-EE6415E52085/assets/F4938046FDDBAF1946C17A7E9E9FCE20.png" width="1416.00" height="690.00" transform="matrix(0.29, 0.00, -0.00, -0.29, 79.0, 321.0)"></image></g></g><g><clipPath id="clip0x6080008b1e80"><path d="M 60.8 86.2 L 357.2 86.2 L 357.2 166.2 L 60.8 166.2 Z M 60.8 86.2 "></path></clipPath><g clip-path="url(#clip0x6080008b1e80)"><path d="M 62.0 165.0 L 356.0 165.0 L 356.0 87.0 L 62.0 87.0 Z M 61.8 165.2 " fill="#3D4453"></path></g></g><g><clipPath id="clip0x6080008bbc00"><path d="M 55.6 83.8 L 574.2 83.8 L 574.2 171.4 L 55.6 171.4 Z M 55.6 83.8 "></path></clipPath><g clip-path="url(#clip0x6080008bbc00)"><text xml:space="preserve" font-family="GillSans-Light,Gill Sans" font-size="36.0" fill="#FEFFFF" transform="matrix(1.00, 0.00, -0.00, -1.00, 105.8, 128.7)">A</text><text xml:space="preserve" font-family="GillSans-Light,Gill Sans" font-size="36.0" fill="#FEFFFF" transform="matrix(1.00, 0.00, -0.00, -1.00, 129.8, 128.7)">P</text><text xml:space="preserve" font-family="GillSans-Light,Gill Sans" font-size="36.0" fill="#FEFFFF" transform="matrix(1.00, 0.00, -0.00, -1.00, 148.1, 128.7)">I</text><text xml:space="preserve" font-family="GillSans-Light,Gill Sans" font-size="36.0" fill="#FEFFFF" transform="matrix(1.00, 0.00, -0.00, -1.00, 155.6, 128.7)"> </text><text xml:space="preserve" font-family="GillSans-Light,Gill Sans" font-size="26.0" fill="#FEFFFF" transform="matrix(1.00, 0.00, -0.00, -1.00, 165.6, 128.7)">(</text><text xml:space="preserve" font-family="GillSans-Light,Gill Sans" font-size="26.0" fill="#FEFFFF" transform="matrix(1.00, 0.00, -0.00, -1.00, 174.3, 128.7)">b</text><text xml:space="preserve" font-family="GillSans-Light,Gill Sans" font-size="26.0" fill="#FEFFFF" transform="matrix(1.00, 0.00, -0.00, -1.00, 187.1, 128.7)">y</text><text xml:space="preserve" font-family="GillSans-Light,Gill Sans" font-size="26.0" fill="#FEFFFF" transform="matrix(1.00, 0.00, -0.00, -1.00, 198.0, 128.7)"> </text><text xml:space="preserve" font-family="GillSans-Light,Gill Sans" font-size="26.0" fill="#FEFFFF" transform="matrix(1.00, 0.00, -0.00, -1.00, 205.2, 128.7)">c</text><text xml:space="preserve" font-family="GillSans-Light,Gill Sans" font-size="26.0" fill="#FEFFFF" transform="matrix(1.00, 0.00, -0.00, -1.00, 216.0, 128.7)">o</text><text xml:space="preserve" font-family="GillSans-Light,Gill Sans" font-size="26.0" fill="#FEFFFF" transform="matrix(1.00, 0.00, -0.00, -1.00, 230.1, 128.7)">l</text><text xml:space="preserve" font-family="GillSans-Light,Gill Sans" font-size="26.0" fill="#FEFFFF" transform="matrix(1.00, 0.00, -0.00, -1.00, 235.0, 128.7)">o</text><text xml:space="preserve" font-family="GillSans-Light,Gill Sans" font-size="26.0" fill="#FEFFFF" transform="matrix(1.00, 0.00, -0.00, -1.00, 249.1, 128.7)">r</text><text xml:space="preserve" font-family="GillSans-Light,Gill Sans" font-size="26.0" fill="#FEFFFF" transform="matrix(1.00, 0.00, -0.00, -1.00, 258.8, 128.7)">s</text><text xml:space="preserve" font-family="GillSans-Light,Gill Sans" font-size="26.0" fill="#FEFFFF" transform="matrix(1.00, 0.00, -0.00, -1.00, 268.0, 128.7)"> </text><text xml:space="preserve" font-family="GillSans-Light,Gill Sans" font-size="26.0" fill="#FEFFFF" transform="matrix(1.00, 0.00, -0.00, -1.00, 275.2, 128.7)">a</text><text xml:space="preserve" font-family="GillSans-Light,Gill Sans" font-size="26.0" fill="#FEFFFF" transform="matrix(1.00, 0.00, -0.00, -1.00, 286.3, 128.7)">n</text><text xml:space="preserve" font-family="GillSans-Light,Gill Sans" font-size="26.0" fill="#FEFFFF" transform="matrix(1.00, 0.00, -0.00, -1.00, 299.1, 128.7)">d</text><text xml:space="preserve" font-family="GillSans-Light,Gill Sans" font-size="26.0" fill="#FEFFFF" transform="matrix(1.00, 0.00, -0.00, -1.00, 66.3, 97.4)">p</text><text xml:space="preserve" font-family="GillSans-Light,Gill Sans" font-size="26.0" fill="#FEFFFF" transform="matrix(1.00, 0.00, -0.00, -1.00, 79.6, 97.4)">r</text><text xml:space="preserve" font-family="GillSans-Light,Gill Sans" font-size="26.0" fill="#FEFFFF" transform="matrix(1.00, 0.00, -0.00, -1.00, 88.3, 97.4)">o</text><text xml:space="preserve" font-family="GillSans-Light,Gill Sans" font-size="26.0" fill="#FEFFFF" transform="matrix(1.00, 0.00, -0.00, -1.00, 102.3, 97.4)">b</text><text xml:space="preserve" font-family="GillSans-Light,Gill Sans" font-size="26.0" fill="#FEFFFF" transform="matrix(1.00, 0.00, -0.00, -1.00, 115.6, 97.4)">a</text><text xml:space="preserve" font-family="GillSans-Light,Gill Sans" font-size="26.0" fill="#FEFFFF" transform="matrix(1.00, 0.00, -0.00, -1.00, 126.7, 97.4)">b</text><text xml:space="preserve" font-family="GillSans-Light,Gill Sans" font-size="26.0" fill="#FEFFFF" transform="matrix(1.00, 0.00, -0.00, -1.00, 139.9, 97.4)">i</text><text xml:space="preserve" font-family="GillSans-Light,Gill Sans" font-size="26.0" fill="#FEFFFF" transform="matrix(1.00, 0.00, -0.00, -1.00, 144.8, 97.4)">l</text><text xml:space="preserve" font-family="GillSans-Light,Gill Sans" font-size="26.0" fill="#FEFFFF" transform="matrix(1.00, 0.00, -0.00, -1.00, 149.7, 97.4)">i</text><text xml:space="preserve" font-family="GillSans-Light,Gill Sans" font-size="26.0" fill="#FEFFFF" transform="matrix(1.00, 0.00, -0.00, -1.00, 154.6, 97.4)">t</text><text xml:space="preserve" font-family="GillSans-Light,Gill Sans" font-size="26.0" fill="#FEFFFF" transform="matrix(1.00, 0.00, -0.00, -1.00, 162.4, 97.4)">i</text><text xml:space="preserve" font-family="GillSans-Light,Gill Sans" font-size="26.0" fill="#FEFFFF" transform="matrix(1.00, 0.00, -0.00, -1.00, 167.3, 97.4)">e</text><text xml:space="preserve" font-family="GillSans-Light,Gill Sans" font-size="26.0" fill="#FEFFFF" transform="matrix(1.00, 0.00, -0.00, -1.00, 179.8, 97.4)">s</text><text xml:space="preserve" font-family="GillSans-Light,Gill Sans" font-size="26.0" fill="#FEFFFF" transform="matrix(1.00, 0.00, -0.00, -1.00, 189.0, 97.4)"> </text><text xml:space="preserve" font-family="GillSans-Light,Gill Sans" font-size="26.0" fill="#FEFFFF" transform="matrix(1.00, 0.00, -0.00, -1.00, 196.2, 97.4)">w</text><text xml:space="preserve" font-family="GillSans-Light,Gill Sans" font-size="26.0" fill="#FEFFFF" transform="matrix(1.00, 0.00, -0.00, -1.00, 214.6, 97.4)">i</text><text xml:space="preserve" font-family="GillSans-Light,Gill Sans" font-size="26.0" fill="#FEFFFF" transform="matrix(1.00, 0.00, -0.00, -1.00, 219.5, 97.4)">t</text><text xml:space="preserve" font-family="GillSans-Light,Gill Sans" font-size="26.0" fill="#FEFFFF" transform="matrix(1.00, 0.00, -0.00, -1.00, 227.3, 97.4)">h</text><text xml:space="preserve" font-family="GillSans-Light,Gill Sans" font-size="26.0" fill="#FEFFFF" transform="matrix(1.00, 0.00, -0.00, -1.00, 240.1, 97.4)"> </text><text xml:space="preserve" font-family="GillSans-Light,Gill Sans" font-size="26.0" fill="#FEFFFF" transform="matrix(1.00, 0.00, -0.00, -1.00, 247.3, 97.4)">t</text><text xml:space="preserve" font-family="GillSans-Light,Gill Sans" font-size="26.0" fill="#FEFFFF" transform="matrix(1.00, 0.00, -0.00, -1.00, 255.1, 97.4)">o</text><text xml:space="preserve" font-family="GillSans-Light,Gill Sans" font-size="26.0" fill="#FEFFFF" transform="matrix(1.00, 0.00, -0.00, -1.00, 269.2, 97.4)">l</text><text xml:space="preserve" font-family="GillSans-Light,Gill Sans" font-size="26.0" fill="#FEFFFF" transform="matrix(1.00, 0.00, -0.00, -1.00, 274.1, 97.4)">e</text><text xml:space="preserve" font-family="GillSans-Light,Gill Sans" font-size="26.0" fill="#FEFFFF" transform="matrix(1.00, 0.00, -0.00, -1.00, 286.6, 97.4)">r</text><text xml:space="preserve" font-family="GillSans-Light,Gill Sans" font-size="26.0" fill="#FEFFFF" transform="matrix(1.00, 0.00, -0.00, -1.00, 295.9, 97.4)">a</text><text xml:space="preserve" font-family="GillSans-Light,Gill Sans" font-size="26.0" fill="#FEFFFF" transform="matrix(1.00, 0.00, -0.00, -1.00, 307.0, 97.4)">n</text><text xml:space="preserve" font-family="GillSans-Light,Gill Sans" font-size="26.0" fill="#FEFFFF" transform="matrix(1.00, 0.00, -0.00, -1.00, 319.7, 97.4)">c</text><text xml:space="preserve" font-family="GillSans-Light,Gill Sans" font-size="26.0" fill="#FEFFFF" transform="matrix(1.00, 0.00, -0.00, -1.00, 330.6, 97.4)">e</text><text xml:space="preserve" font-family="GillSans-Light,Gill Sans" font-size="26.0" fill="#FEFFFF" transform="matrix(1.00, 0.00, -0.00, -1.00, 343.0, 97.4)">)</text></g></g><g><clipPath id="clip0x6080004a0720"><path d="M 167.0 628.0 L 843.0 628.0 L 843.0 47.0 L 167.0 47.0 Z M 167.1 628.3 "></path></clipPath><g clip-path="url(#clip0x6080004a0720)"><image xlink:href="../../38D3D0A8-BC86-4E13-8469-EE6415E52085/assets/8B2ACDF7292F44D5E605644B440C4DBB.png" width="1882.00" height="1620.00" transform="matrix(0.36, 0.00, -0.00, -0.36, 167.0, 628.0)"></image></g></g><image xlink:href="../../38D3D0A8-BC86-4E13-8469-EE6415E52085/assets/9209D52A4CA443A9017FB6C8B1CD1F36.png" width="690.00" height="601.00" transform="matrix(1.00, 0.00, -0.00, 1.00, 160.1, 31.5)"></image></g></svg>