<?xml version="1.0" encoding="UTF-8" standalone="no"?><svg xmlns="http://www.w3.org/2000/svg" xmlns:xlink="http://www.w3.org/1999/xlink" clip-rule="evenodd" stroke-miterlimit="10" viewBox="0 0 221 401"><desc>SVG generated by Keynote</desc><defs></defs><g transform="matrix(1.00, 0.00, -0.00, -1.00, 0.0, 401.0)"><g><clipPath id="clip0x600000aa8640"><path d="M 0.0 401.0 L 206.0 401.0 L 206.0 25.0 L 0.0 25.0 Z M 0.3 400.5 "></path></clipPath><g clip-path="url(#clip0x600000aa8640)"><g><clipPath id="clip0x600000aa89a0"><path d="M 0.3 25.3 L 206.2 25.3 L 206.2 400.5 L 0.3 400.5 Z M 0.3 25.3 "></path></clipPath><g clip-path="url(#clip0x600000aa89a0)"><image xlink:href="E6578061CCA50048D15CBB03310CA1DC.png" width="662.00" height="1206.00" transform="matrix(0.31, 0.00, -0.00, -0.31, 0.0, 400.0)"></image></g></g></g></g><g><clipPath id="clip0x600000aa8a60"><path d="M 147.4 0.3 L 220.4 0.3 L 220.4 51.4 L 147.4 51.4 Z M 147.4 0.3 "></path></clipPath><g clip-path="url(#clip0x600000aa8a60)"><path d="M 148.0 50.0 L 219.0 50.0 L 219.0 1.0 L 148.0 1.0 Z M 148.4 50.4 " fill="#78889F"></path></g></g><g><clipPath id="clip0x600000aa8e80"><path d="M 142.1 -4.8 L 225.6 -4.8 L 225.6 56.7 L 142.1 56.7 Z M 142.1 -4.8 "></path></clipPath><g clip-path="url(#clip0x600000aa8e80)"><text xml:space="preserve" font-family="GillSans-Light,Gill Sans" font-size="36.0" fill="#FEFFFF" transform="matrix(1.00, 0.00, -0.00, -1.00, 153.0, 14.0)">M</text><text xml:space="preserve" font-family="GillSans-Light,Gill Sans" font-size="36.0" fill="#FEFFFF" transform="matrix(1.00, 0.00, -0.00, -1.00, 181.1, 14.0)">a</text><text xml:space="preserve" font-family="GillSans-Light,Gill Sans" font-size="36.0" fill="#FEFFFF" transform="matrix(1.00, 0.00, -0.00, -1.00, 196.4, 14.0)">p</text></g></g></g></svg>