<?xml version="1.0" encoding="UTF-8" standalone="no"?><svg xmlns="http://www.w3.org/2000/svg" xmlns:xlink="http://www.w3.org/1999/xlink" clip-rule="evenodd" stroke-miterlimit="10" viewBox="0 0 416 464"><desc>SVG generated by Keynote</desc><defs></defs><g transform="matrix(1.00, 0.00, -0.00, -1.00, 0.0, 464.0)"><g><clipPath id="clip0x6180006b3560"><path d="M 62.9 9.4 L 415.1 9.4 L 415.1 463.1 L 62.9 463.1 Z M 62.9 9.4 "></path></clipPath><g clip-path="url(#clip0x6180006b3560)"><image xlink:href="3B830FC796BEA7E356C6EA375B8D0522.png" width="352.00" height="454.00" transform="matrix(1.00, 0.00, -0.00, -1.00, 62.9, 463.1)" opacity="0.60"></image><image xlink:href="1B09E6152CE9444413DC188BD3139DD3.png" width="576.00" height="752.00" transform="matrix(0.58, 0.00, -0.00, -0.58, 73.0, 459.0)"></image></g></g><g><clipPath id="clip0x6180004b1be0"><path d="M 0.5 0.0 L 151.4 0.0 L 151.4 51.0 L 0.5 51.0 Z M 0.5 0.0 "></path></clipPath><g clip-path="url(#clip0x6180004b1be0)"><path d="M 2.0 50.0 L 150.0 50.0 L 150.0 1.0 L 2.0 1.0 Z M 1.5 50.0 " fill="#78889F"></path></g></g><g><clipPath id="clip0x6180006ab820"><path d="M -4.7 -5.2 L 156.7 -5.2 L 156.7 56.2 L -4.7 56.2 Z M -4.7 -5.2 "></path></clipPath><g clip-path="url(#clip0x6180006ab820)"><text xml:space="preserve" font-family="GillSans-Light,Gill Sans" font-size="36.0" fill="#FEFFFF" transform="matrix(1.00, 0.00, -0.00, -1.00, 6.0, 13.6)">H</text><text xml:space="preserve" font-family="GillSans-Light,Gill Sans" font-size="36.0" fill="#FEFFFF" transform="matrix(1.00, 0.00, -0.00, -1.00, 31.9, 13.6)">i</text><text xml:space="preserve" font-family="GillSans-Light,Gill Sans" font-size="36.0" fill="#FEFFFF" transform="matrix(1.00, 0.00, -0.00, -1.00, 38.7, 13.6)">g</text><text xml:space="preserve" font-family="GillSans-Light,Gill Sans" font-size="36.0" fill="#FEFFFF" transform="matrix(1.00, 0.00, -0.00, -1.00, 54.1, 13.6)">h</text><text xml:space="preserve" font-family="GillSans-Light,Gill Sans" font-size="36.0" fill="#FEFFFF" transform="matrix(1.00, 0.00, -0.00, -1.00, 71.7, 13.6)">m</text><text xml:space="preserve" font-family="GillSans-Light,Gill Sans" font-size="36.0" fill="#FEFFFF" transform="matrix(1.00, 0.00, -0.00, -1.00, 99.5, 13.6)">a</text><text xml:space="preserve" font-family="GillSans-Light,Gill Sans" font-size="36.0" fill="#FEFFFF" transform="matrix(1.00, 0.00, -0.00, -1.00, 114.8, 13.6)">p</text><text xml:space="preserve" font-family="GillSans-Light,Gill Sans" font-size="36.0" fill="#FEFFFF" transform="matrix(1.00, 0.00, -0.00, -1.00, 133.2, 13.6)">s</text></g></g></g></svg>