<?xml version="1.0" encoding="UTF-8" standalone="no"?><svg xmlns="http://www.w3.org/2000/svg" xmlns:xlink="http://www.w3.org/1999/xlink" clip-rule="evenodd" stroke-miterlimit="10" viewBox="0 0 526 287"><desc>SVG generated by Keynote</desc><defs></defs><g transform="matrix(1.00, 0.00, -0.00, -1.00, 0.0, 287.0)"><g><clipPath id="clip0x600000aa9840"><path d="M 19.0 286.0 L 525.0 286.0 L 525.0 195.0 L 19.0 195.0 Z M 19.1 286.4 "></path></clipPath><g clip-path="url(#clip0x600000aa9840)"><g><clipPath id="clip0x600000aa9ba0"><path d="M 19.1 195.4 L 525.1 195.4 L 525.1 286.4 L 19.1 286.4 Z M 19.1 195.4 "></path></clipPath><g clip-path="url(#clip0x600000aa9ba0)"><image xlink:href="BE23FFDFD337E77D084C37367820CA73.png" width="1186.00" height="1386.00" transform="matrix(0.43, 0.00, -0.00, -0.43, 19.0, 286.0)"></image></g></g></g></g><g><clipPath id="clip0x6100006b38c0"><path d="M 19.0 185.0 L 525.0 185.0 L 525.0 4.0 L 19.0 4.0 Z M 19.1 185.1 "></path></clipPath><g clip-path="url(#clip0x6100006b38c0)"><g><clipPath id="clip0x6100006b3b60"><path d="M 19.1 4.1 L 525.1 4.1 L 525.1 185.1 L 19.1 185.1 Z M 19.1 4.1 "></path></clipPath><g clip-path="url(#clip0x6100006b3b60)"><image xlink:href="../../056CD0AB-FD03-4ED2-BF74-724D5E9AC044/assets/BE23FFDFD337E77D084C37367820CA73.png" width="1186.00" height="1386.00" transform="matrix(0.43, 0.00, -0.00, -0.43, 19.0, 595.0)"></image></g></g></g></g><g><clipPath id="clip0x6180004beb40"><path d="M 0.7 0.5 L 117.8 0.5 L 117.8 51.5 L 0.7 51.5 Z M 0.7 0.5 "></path></clipPath><g clip-path="url(#clip0x6180004beb40)"><path d="M 2.0 51.0 L 117.0 51.0 L 117.0 2.0 L 2.0 2.0 Z M 1.7 50.5 " fill="#78889F"></path></g></g><g><clipPath id="clip0x6180008b3bc0"><path d="M -4.5 -4.7 L 123.1 -4.7 L 123.1 56.8 L -4.5 56.8 Z M -4.5 -4.7 "></path></clipPath><g clip-path="url(#clip0x6180008b3bc0)"><text xml:space="preserve" font-family="GillSans-Light,Gill Sans" font-size="36.0" fill="#FEFFFF" transform="matrix(1.00, 0.00, -0.00, -1.00, 6.2, 14.1)">R</text><text xml:space="preserve" font-family="GillSans-Light,Gill Sans" font-size="36.0" fill="#FEFFFF" transform="matrix(1.00, 0.00, -0.00, -1.00, 26.9, 14.1)">e</text><text xml:space="preserve" font-family="GillSans-Light,Gill Sans" font-size="36.0" fill="#FEFFFF" transform="matrix(1.00, 0.00, -0.00, -1.00, 44.1, 14.1)">d</text><text xml:space="preserve" font-family="GillSans-Light,Gill Sans" font-size="36.0" fill="#FEFFFF" transform="matrix(1.00, 0.00, -0.00, -1.00, 62.4, 14.1)">u</text><text xml:space="preserve" font-family="GillSans-Light,Gill Sans" font-size="36.0" fill="#FEFFFF" transform="matrix(1.00, 0.00, -0.00, -1.00, 80.1, 14.1)">c</text><text xml:space="preserve" font-family="GillSans-Light,Gill Sans" font-size="36.0" fill="#FEFFFF" transform="matrix(1.00, 0.00, -0.00, -1.00, 95.1, 14.1)">e</text></g></g></g></svg>